<?xml version="1.0" encoding="iso-8859-1"?>
<!-- Generator: Adobe Illustrator 19.0.0, SVG Export Plug-In . SVG Version: 6.00 Build 0)  -->
<svg xmlns="http://www.w3.org/2000/svg" xmlns:xlink="http://www.w3.org/1999/xlink" version="1.1" id="Capa_1" x="0px" y="0px" viewBox="0 0 512 512" style="enable-background:new 0 0 512 512;" xml:space="preserve">
<polygon style="fill:#FEDC3D;" points="512,45 512,467 256,467 156,256 256,45 "/>
<g>
	<rect y="45" style="fill:#FFF2B8;" width="256" height="422"/>
	<polygon style="fill:#FFF2B8;" points="482,75 482,347.04 156,407 256,75  "/>
</g>
<polygon style="fill:#FFFFFF;" points="256,75 256,407 30,347.04 30,75 "/>
<path style="fill:#FE5F1A;" d="M256,140c33.142,0,60,26.858,60,60s-26.858,60-60,60l-25.714-60L256,140z"/>
<path style="fill:#FE834D;" d="M256,140v120c-33.142,0-60-26.858-60-60S222.858,140,256,140z"/>
<polygon style="fill:#02ACAB;" points="256,347.04 143,377.04 30,347.04 143,271.5 "/>
<polygon style="fill:#027372;" points="482,347.04 369,377.04 256,347.04 369,271.5 "/>
<polygon style="fill:#02ACAB;" points="256,347.04 226,392.02 256,437 482,437 482,347.04 "/>
<rect x="30" y="347.04" style="fill:#42C8C6;" width="226" height="89.96"/>
<g>
</g>
<g>
</g>
<g>
</g>
<g>
</g>
<g>
</g>
<g>
</g>
<g>
</g>
<g>
</g>
<g>
</g>
<g>
</g>
<g>
</g>
<g>
</g>
<g>
</g>
<g>
</g>
<g>
</g>
</svg>
